<svg width="168.066" height="71.094" viewBox="0 0 168.066 71.094" xmlns="http://www.w3.org/2000/svg"><g id="svgGroup" stroke-linecap="round" fill-rule="evenodd" font-size="9pt" stroke="#000" stroke-width="0.25mm" fill="#000" style="stroke:#000;stroke-width:0.25mm;fill:#000"><path d="M 9.229 47.07 L 17.139 38.086 L 38.623 71.094 L 49.609 71.094 L 23.096 31.104 L 47.949 0 L 36.963 0 L 16.113 26.123 L 9.229 34.717 L 9.229 0 L 0 0 L 0 71.094 L 9.229 71.094 L 9.229 47.07 Z M 103.076 0 L 60.107 0 L 60.107 7.861 L 76.758 7.861 L 76.758 63.281 L 60.107 63.281 L 60.107 71.094 L 103.076 71.094 L 103.076 63.281 L 86.035 63.281 L 86.035 7.861 L 103.076 7.861 L 103.076 0 Z M 146.094 7.715 L 168.066 7.715 L 168.066 0 L 115.332 0 L 115.332 7.715 L 137.305 7.715 L 137.305 71.094 L 146.094 71.094 L 146.094 7.715 Z" vector-effect="non-scaling-stroke"/></g></svg>